<svg xmlns="http://www.w3.org/2000/svg" viewBox="0 0 48 48" fill="none">
  <defs>
    <linearGradient id="bizgarhAurora" x1="8" y1="40" x2="38" y2="8" gradientUnits="userSpaceOnUse">
      <stop offset="0" stop-color="#4F46E5"/>
      <stop offset=".46" stop-color="#7C3AED"/>
      <stop offset="1" stop-color="#E11D74"/>
    </linearGradient>
    <linearGradient id="bizgarhGlass" x1="14" y1="12" x2="30" y2="36">
      <stop offset="0" stop-color="#fff" stop-opacity=".24"/>
      <stop offset="1" stop-color="#fff" stop-opacity="0"/>
    </linearGradient>
    <clipPath id="bizgarhDisc">
      <circle cx="23" cy="25.4" r="16.35"/>
    </clipPath>
  </defs>
  <circle cx="23" cy="25.4" r="20.35" fill="none" stroke="url(#bizgarhAurora)" stroke-width="1.75"/>
  <circle cx="23" cy="25.4" r="16.55" fill="url(#bizgarhAurora)"/>
  <ellipse cx="18.4" cy="20" rx="8.4" ry="5.8" fill="url(#bizgarhGlass)"/>
  <circle cx="23" cy="25.4" r="15.45" stroke="#fff" stroke-width="1" opacity=".32"/>
  <path fill="#fff" d="M14.35 35.05V21.15C14.35 15.2 18.15 11.85 23 11.85S31.65 15.2 31.65 21.15v13.9h-4.05V22.85c0-2.85-2-4.95-4.6-4.95s-4.6 2.1-4.6 4.95v12.2h-4.05Z"/>
  <g clip-path="url(#bizgarhDisc)">
    <path d="M18.9 30.35 21.95 25.15 24.85 27.2 28.85 19.55" stroke="#fff" stroke-width="2" stroke-linecap="round" stroke-linejoin="round"/>
    <path fill="#fff" d="M27.55 18.05 31.35 17.35 29.55 21.45Z"/>
  </g>
  <circle cx="36.35" cy="9.85" r="3.55" fill="#fff"/>
  <circle cx="36.35" cy="9.85" r="2.55" fill="#E11D74"/>
  <circle cx="36.35" cy="9.85" r="1.05" fill="#fff"/>
</svg>
